<mxfile host="65bd71144e">
    <diagram id="WoOr5mEdBPwFPDnr6KC0" name="Page-1">
        <mxGraphModel dx="496" dy="597" grid="1" gridSize="10" guides="1" tooltips="1" connect="1" arrows="1" fold="1" page="1" pageScale="1" pageWidth="850" pageHeight="1100" math="0" shadow="0">
            <root>
                <mxCell id="0"/>
                <mxCell id="1" parent="0"/>
                <mxCell id="48" style="edgeStyle=none;html=1;exitX=0.25;exitY=1;exitDx=0;exitDy=0;entryX=0.25;entryY=0;entryDx=0;entryDy=0;fontSize=18;fontColor=#33FF33;" parent="1" source="3" target="30" edge="1">
                    <mxGeometry relative="1" as="geometry"/>
                </mxCell>
                <mxCell id="3" value="" style="rounded=1;whiteSpace=wrap;html=1;strokeColor=default;fillColor=none;" parent="1" vertex="1">
                    <mxGeometry x="122" y="206" width="600" height="218" as="geometry"/>
                </mxCell>
                <mxCell id="4" value="&lt;font color=&quot;#33ff33&quot; style=&quot;font-size: 37px;&quot;&gt;&lt;b&gt;Client&lt;/b&gt;&lt;/font&gt;" style="rounded=1;whiteSpace=wrap;html=1;strokeColor=none;fillColor=none;" parent="1" vertex="1">
                    <mxGeometry x="362" y="216" width="120" height="78" as="geometry"/>
                </mxCell>
                <mxCell id="5" value="&lt;font style=&quot;font-size: 16px;&quot;&gt;TUI&lt;/font&gt;" style="ellipse;whiteSpace=wrap;html=1;strokeColor=default;fontSize=37;fontColor=#33FF33;fillColor=none;" parent="1" vertex="1">
                    <mxGeometry x="162" y="286" width="120" height="98" as="geometry"/>
                </mxCell>
                <mxCell id="6" value="Web" style="ellipse;whiteSpace=wrap;html=1;strokeColor=default;fontSize=16;fontColor=#33FF33;fillColor=none;" parent="1" vertex="1">
                    <mxGeometry x="562" y="286" width="120" height="98" as="geometry"/>
                </mxCell>
                <mxCell id="49" style="edgeStyle=none;html=1;exitX=0.75;exitY=0;exitDx=0;exitDy=0;entryX=0.75;entryY=1;entryDx=0;entryDy=0;fontSize=18;fontColor=#33FF33;" parent="1" source="30" target="3" edge="1">
                    <mxGeometry relative="1" as="geometry"/>
                </mxCell>
                <mxCell id="52" style="edgeStyle=none;html=1;exitX=0.25;exitY=1;exitDx=0;exitDy=0;entryX=0.25;entryY=0;entryDx=0;entryDy=0;fontSize=37;fontColor=#33FF33;" parent="1" source="30" target="51" edge="1">
                    <mxGeometry relative="1" as="geometry"/>
                </mxCell>
                <mxCell id="30" value="" style="rounded=1;whiteSpace=wrap;html=1;strokeColor=default;fontSize=16;fontColor=#33FF33;fillColor=none;" parent="1" vertex="1">
                    <mxGeometry x="122" y="496" width="600" height="248" as="geometry"/>
                </mxCell>
                <mxCell id="32" value="Session" style="rounded=1;whiteSpace=wrap;html=1;strokeColor=default;fontSize=16;fontColor=#33FF33;fillColor=none;" parent="1" vertex="1">
                    <mxGeometry x="162" y="606" width="120" height="78" as="geometry"/>
                </mxCell>
                <mxCell id="33" value="Authentication" style="rounded=1;whiteSpace=wrap;html=1;strokeColor=none;fontSize=37;fontColor=#33FF33;fillColor=none;" parent="1" vertex="1">
                    <mxGeometry x="312" y="506" width="220" height="78" as="geometry"/>
                </mxCell>
                <mxCell id="34" value="Cookies" style="rounded=1;whiteSpace=wrap;html=1;strokeColor=default;fontSize=16;fontColor=#33FF33;fillColor=none;" parent="1" vertex="1">
                    <mxGeometry x="582" y="606" width="120" height="78" as="geometry"/>
                </mxCell>
                <mxCell id="55" style="edgeStyle=none;html=1;exitX=0.75;exitY=0;exitDx=0;exitDy=0;entryX=0.75;entryY=1;entryDx=0;entryDy=0;fontSize=37;fontColor=#33FF33;" parent="1" source="35" target="51" edge="1">
                    <mxGeometry relative="1" as="geometry"/>
                </mxCell>
                <mxCell id="35" value="" style="rounded=1;whiteSpace=wrap;html=1;strokeColor=default;fontSize=37;fontColor=#33FF33;fillColor=none;" parent="1" vertex="1">
                    <mxGeometry x="122" y="1049" width="600" height="458" as="geometry"/>
                </mxCell>
                <mxCell id="36" value="Server" style="rounded=1;whiteSpace=wrap;html=1;strokeColor=none;fontSize=37;fontColor=#33FF33;fillColor=none;" parent="1" vertex="1">
                    <mxGeometry x="312" y="1049" width="220" height="78" as="geometry"/>
                </mxCell>
                <mxCell id="37" value="Create Profiles" style="rounded=1;whiteSpace=wrap;html=1;strokeColor=default;fontSize=16;fontColor=#33FF33;fillColor=none;" parent="1" vertex="1">
                    <mxGeometry x="162" y="1109" width="120" height="78" as="geometry"/>
                </mxCell>
                <mxCell id="38" value="Get Profiles" style="rounded=1;whiteSpace=wrap;html=1;strokeColor=default;fontSize=16;fontColor=#33FF33;fillColor=none;" parent="1" vertex="1">
                    <mxGeometry x="362" y="1109" width="120" height="78" as="geometry"/>
                </mxCell>
                <mxCell id="39" value="Get user data" style="rounded=1;whiteSpace=wrap;html=1;strokeColor=default;fontSize=16;fontColor=#33FF33;fillColor=none;" parent="1" vertex="1">
                    <mxGeometry x="562" y="1109" width="120" height="78" as="geometry"/>
                </mxCell>
                <mxCell id="40" value="&lt;font style=&quot;font-size: 18px;&quot;&gt;NoSQL database&lt;/font&gt;" style="shape=cylinder3;whiteSpace=wrap;html=1;boundedLbl=1;backgroundOutline=1;size=15;strokeColor=default;fontSize=37;fontColor=#33FF33;fillColor=none;" parent="1" vertex="1">
                    <mxGeometry x="562" y="1379" width="110" height="114" as="geometry"/>
                </mxCell>
                <mxCell id="41" value="Manage Session" style="rounded=1;whiteSpace=wrap;html=1;strokeColor=default;fontSize=18;fontColor=#33FF33;fillColor=none;" parent="1" vertex="1">
                    <mxGeometry x="162" y="1230" width="120" height="78" as="geometry"/>
                </mxCell>
                <mxCell id="42" value="Manage cookies" style="rounded=1;whiteSpace=wrap;html=1;strokeColor=default;fontSize=18;fontColor=#33FF33;fillColor=none;" parent="1" vertex="1">
                    <mxGeometry x="562" y="1232" width="120" height="78" as="geometry"/>
                </mxCell>
                <mxCell id="44" value="console erros" style="rounded=1;whiteSpace=wrap;html=1;strokeColor=default;fontSize=18;fontColor=#33FF33;fillColor=none;" parent="1" vertex="1">
                    <mxGeometry x="362" y="1229" width="120" height="78" as="geometry"/>
                </mxCell>
                <mxCell id="46" value="&lt;font style=&quot;font-size: 18px;&quot;&gt;SQL database&lt;/font&gt;" style="shape=cylinder3;whiteSpace=wrap;html=1;boundedLbl=1;backgroundOutline=1;size=15;strokeColor=default;fontSize=37;fontColor=#33FF33;fillColor=none;" parent="1" vertex="1">
                    <mxGeometry x="162" y="1379" width="110" height="118" as="geometry"/>
                </mxCell>
                <mxCell id="53" style="edgeStyle=none;html=1;exitX=0.25;exitY=1;exitDx=0;exitDy=0;entryX=0.25;entryY=0;entryDx=0;entryDy=0;fontSize=37;fontColor=#33FF33;" parent="1" source="51" target="35" edge="1">
                    <mxGeometry relative="1" as="geometry"/>
                </mxCell>
                <mxCell id="54" style="edgeStyle=none;html=1;exitX=0.75;exitY=0;exitDx=0;exitDy=0;entryX=0.75;entryY=1;entryDx=0;entryDy=0;fontSize=37;fontColor=#33FF33;" parent="1" source="51" target="30" edge="1">
                    <mxGeometry relative="1" as="geometry"/>
                </mxCell>
                <mxCell id="51" value="" style="rounded=1;whiteSpace=wrap;html=1;strokeColor=default;fontSize=18;fontColor=#33FF33;fillColor=none;" parent="1" vertex="1">
                    <mxGeometry x="122" y="806" width="600" height="178" as="geometry"/>
                </mxCell>
                <mxCell id="56" value="&lt;font style=&quot;font-size: 18px;&quot;&gt;Send request&lt;/font&gt;" style="rounded=1;whiteSpace=wrap;html=1;strokeColor=default;fontSize=37;fontColor=#33FF33;fillColor=none;" parent="1" vertex="1">
                    <mxGeometry x="157" y="886" width="120" height="78" as="geometry"/>
                </mxCell>
                <mxCell id="57" value="Receive response" style="rounded=1;whiteSpace=wrap;html=1;strokeColor=default;fontSize=18;fontColor=#33FF33;fillColor=none;" parent="1" vertex="1">
                    <mxGeometry x="582" y="896" width="120" height="78" as="geometry"/>
                </mxCell>
                <mxCell id="58" value="&lt;span style=&quot;font-size: 37px;&quot;&gt;API&lt;/span&gt;" style="rounded=1;whiteSpace=wrap;html=1;strokeColor=none;fontSize=18;fontColor=#33FF33;fillColor=none;" parent="1" vertex="1">
                    <mxGeometry x="362" y="816" width="120" height="78" as="geometry"/>
                </mxCell>
            </root>
        </mxGraphModel>
    </diagram>
</mxfile>